<svg width="878" height="222" viewBox="0 0 878 222" fill="none" xmlns="http://www.w3.org/2000/svg">
<path d="M477.49 33.0478C845.884 110.74 923.035 137.747 853.293 159.391C546.009 279.692 127.757 181.861 99.0291 151.19C70.3017 120.519 234.504 -11.0298 477.49 33.0478Z" fill="#BFEAE1"/>
<path d="M400.853 187.668C32.0782 111.802 -45.2056 85.1776 24.429 63.1881C331.113 -58.6344 749.845 37.1231 778.724 67.6512C807.603 98.1792 644.054 230.54 400.853 187.668Z" fill="#FFEEC1" fill-opacity="0.8"/>
<path d="M213.5 95.944H216.668V117.976H227.972V121H213.5V95.944ZM249.143 114.376H237.083L234.527 121H231.359L241.007 95.944H245.399L255.047 121H251.699L249.143 114.376ZM248.099 111.676L243.131 98.716L238.127 111.676H248.099ZM269.868 121.432C266.844 121.432 264.492 120.472 262.812 118.552C261.156 116.608 260.328 113.968 260.328 110.632V95.944H263.496V110.524C263.496 112.972 264.036 114.916 265.116 116.356C266.22 117.772 267.804 118.48 269.868 118.48C271.932 118.48 273.504 117.772 274.584 116.356C275.688 114.916 276.24 112.972 276.24 110.524V95.944H279.408V110.632C279.408 113.968 278.568 116.608 276.888 118.552C275.232 120.472 272.892 121.432 269.868 121.432ZM302.782 121L297.706 111.172H297.346H291.586V121H288.418V95.944H296.914C299.914 95.944 302.146 96.58 303.61 97.852C305.074 99.1 305.806 100.936 305.806 103.36C305.806 105.16 305.41 106.684 304.618 107.932C303.826 109.18 302.662 110.068 301.126 110.596L306.598 121H302.782ZM296.95 108.184C298.822 108.184 300.19 107.824 301.054 107.104C301.942 106.36 302.386 105.112 302.386 103.36C302.386 101.752 301.942 100.624 301.054 99.976C300.19 99.304 298.81 98.968 296.914 98.968H291.586V108.184H296.95ZM328.385 114.376H316.325L313.769 121H310.601L320.249 95.944H324.641L334.289 121H330.941L328.385 114.376ZM327.341 111.676L322.373 98.716L317.369 111.676H327.341ZM357.347 121.432C356.003 121.432 354.575 121.252 353.063 120.892C351.551 120.532 350.123 120.04 348.779 119.416V114.808C351.899 116.488 354.683 117.328 357.131 117.328C358.355 117.328 359.339 117.064 360.083 116.536C360.851 116.008 361.235 115.264 361.235 114.304C361.235 113.632 361.019 113.068 360.587 112.612C360.179 112.132 359.663 111.748 359.039 111.46C358.415 111.148 357.527 110.776 356.375 110.344C354.815 109.768 353.543 109.216 352.559 108.688C351.575 108.16 350.735 107.416 350.039 106.456C349.343 105.472 348.995 104.212 348.995 102.676C348.995 100.42 349.775 98.668 351.335 97.42C352.895 96.148 355.031 95.512 357.743 95.512C359.015 95.512 360.263 95.656 361.487 95.944C362.711 96.208 363.839 96.604 364.871 97.132V101.632C362.447 100.288 360.107 99.616 357.851 99.616C356.603 99.616 355.619 99.844 354.899 100.3C354.203 100.732 353.855 101.356 353.855 102.172C353.855 102.988 354.215 103.636 354.935 104.116C355.679 104.572 356.819 105.076 358.355 105.628C359.963 106.228 361.283 106.804 362.315 107.356C363.347 107.908 364.235 108.712 364.979 109.768C365.747 110.8 366.155 112.144 366.203 113.8C366.203 116.176 365.399 118.048 363.791 119.416C362.183 120.76 360.035 121.432 357.347 121.432ZM388.151 114.376H376.091L373.535 121H370.367L380.015 95.944H384.407L394.055 121H390.707L388.151 114.376ZM387.107 111.676L382.139 98.716L377.135 111.676H387.107ZM399.247 95.944H403.999V116.824H414.547V121H399.247V95.944ZM424.09 98.968V106.888H435.07V109.768H424.09V117.976H435.862V121H420.922V95.944H435.862V98.968H424.09ZM471.021 121H466.269V101.956L459.645 121H454.677L447.909 101.992V121H443.157V95.944H450.609L457.233 114.52L463.677 95.944H471.021V121ZM478.922 95.944H482.09V121H478.922V95.944ZM515.627 114.376H503.567L501.011 121H497.843L507.491 95.944H511.883L521.531 121H518.183L515.627 114.376ZM514.583 111.676L509.615 98.716L504.611 111.676H514.583ZM541.88 121L536.804 111.172H536.444H530.684V121H527.516V95.944H536.012C539.012 95.944 541.244 96.58 542.708 97.852C544.172 99.1 544.904 100.936 544.904 103.36C544.904 105.16 544.508 106.684 543.716 107.932C542.924 109.18 541.76 110.068 540.224 110.596L545.696 121H541.88ZM536.048 108.184C537.92 108.184 539.288 107.824 540.152 107.104C541.04 106.36 541.484 105.112 541.484 103.36C541.484 101.752 541.04 100.624 540.152 99.976C539.288 99.304 537.908 98.968 536.012 98.968H530.684V108.184H536.048ZM563.127 121.432C560.703 121.432 558.639 120.892 556.935 119.812C555.255 118.732 553.983 117.22 553.119 115.276C552.279 113.332 551.859 111.064 551.859 108.472C551.859 105.88 552.279 103.612 553.119 101.668C553.983 99.724 555.255 98.212 556.935 97.132C558.639 96.052 560.703 95.512 563.127 95.512C564.447 95.512 565.719 95.68 566.943 96.016C568.167 96.328 569.283 96.796 570.291 97.42V101.02H570.147C569.355 100.252 568.359 99.64 567.159 99.184C565.959 98.704 564.651 98.464 563.235 98.464C560.499 98.464 558.483 99.352 557.187 101.128C555.915 102.904 555.279 105.352 555.279 108.472C555.279 111.616 555.915 114.076 557.187 115.852C558.483 117.628 560.487 118.516 563.199 118.516C564.567 118.516 565.851 118.288 567.051 117.832C568.275 117.376 569.307 116.74 570.147 115.924H570.291V119.524C569.283 120.148 568.167 120.628 566.943 120.964C565.719 121.276 564.447 121.432 563.127 121.432ZM598.433 95.944V121H595.265V109.408H581.801V121H578.633V95.944H581.801V106.456H595.265V95.944H598.433ZM607.102 95.944H610.27V121H607.102V95.944ZM624.393 99.112H616.833V95.944H635.121V99.112H627.561V121H624.393V99.112ZM645.152 98.968V106.888H656.132V109.768H645.152V117.976H656.924V121H641.984V95.944H656.924V98.968H645.152ZM675.416 121.432C672.992 121.432 670.928 120.892 669.224 119.812C667.544 118.732 666.272 117.22 665.408 115.276C664.568 113.332 664.148 111.064 664.148 108.472C664.148 105.88 664.568 103.612 665.408 101.668C666.272 99.724 667.544 98.212 669.224 97.132C670.928 96.052 672.992 95.512 675.416 95.512C676.736 95.512 678.008 95.68 679.232 96.016C680.456 96.328 681.572 96.796 682.58 97.42V101.02H682.436C681.644 100.252 680.648 99.64 679.448 99.184C678.248 98.704 676.94 98.464 675.524 98.464C672.788 98.464 670.772 99.352 669.476 101.128C668.204 102.904 667.568 105.352 667.568 108.472C667.568 111.616 668.204 114.076 669.476 115.852C670.772 117.628 672.776 118.516 675.488 118.516C676.856 118.516 678.14 118.288 679.34 117.832C680.564 117.376 681.596 116.74 682.436 115.924H682.58V119.524C681.572 120.148 680.456 120.628 679.232 120.964C678.008 121.276 676.736 121.432 675.416 121.432ZM696.358 99.112H688.798V95.944H707.086V99.112H699.526V121H696.358V99.112Z" fill="black"/>
</svg>
